// Created by Crowbar 0.67
version 1
nodes
  0 "Bip_01" -1
  1 "bone_root" 0
  2 "bone_pelvis" 1
  3 "bone_l_hip" 2
  4 "bone_l_hipplate" 3
  5 "bone_l_thigh" 3
  6 "bone_l_calf" 5
  7 "bone_l_foot" 6
  8 "bone_l_toe_back_01" 7
  9 "bone_l_toe_back_02" 8
  10 "bone_l_toe_inner_01" 7
  11 "bone_l_toe_inner_02" 10
  12 "bone_l_toe_mid_01" 7
  13 "bone_l_toe_mid_02" 12
  14 "bone_l_toe_outer_01" 7
  15 "bone_l_toe_outer_02" 14
  16 "bone_l_knee" 5
  17 "bone_l_kneeInner" 5
  18 "bone_r_hip" 2
  19 "bone_r_hipplate" 18
  20 "bone_r_thigh" 18
  21 "bone_r_knee" 20
  22 "bone_r_kneeInner" 20
  23 "bone_r_calf" 20
  24 "bone_r_foot" 23
  25 "bone_r_toe_back_01" 24
  26 "bone_r_toe_back_02" 25
  27 "bone_r_toe_inner_01" 24
  28 "bone_r_toe_inner_02" 27
  29 "bone_r_toe_mid_01" 24
  30 "bone_r_toe_mid_02" 29
  31 "bone_r_toe_outer_01" 24
  32 "bone_r_toe_outer_02" 31
  33 "bone_tail_base" 2
  34 "bone_tail_01" 33
  35 "bone_tail_02" 34
  36 "bone_tail_03" 35
  37 "bone_tail_04" 36
  38 "bone_spine_01" 1
  39 "bone_l_backplate_low01" 38
  40 "bone_l_backplate_low02" 38
  41 "bone_r_backplate_low01" 38
  42 "bone_r_backplate_low02" 38
  43 "bone_spine_02" 38
  44 "bone_l_backplate_high" 43
  45 "bone_l_backplate_mid01" 43
  46 "bone_l_backplate_mid02" 43
  47 "bone_l_ribs_01" 43
  48 "bone_r_backplate_high" 43
  49 "bone_r_backplate_mid01" 43
  50 "bone_r_backplate_mid02" 43
  51 "bone_r_ribs_01" 43
  52 "bone_spine_03" 43
  53 "bone_l_backplate_shoulder" 52
  54 "bone_l_ribs_02" 52
  55 "bone_l_ribs_03" 52
  56 "bone_r_backplate_shoulder" 52
  57 "bone_r_ribs_02" 52
  58 "bone_r_ribs_03" 52
  59 "bone_spine_04" 52
  60 "bone_Intestine_Root" 59
  61 "bone_heart_01" 60
  62 "bone_heart_02" 60
  63 "bone_heart_03" 60
  64 "bone_heart_04" 60
  65 "bone_Intestine_05" 60
  66 "bone_Intestine_06" 60
  67 "bone_Intestine_07" 60
  68 "bone_Intestine_11" 60
  69 "bone_Intestine_12" 60
  70 "bone_Intestine_13" 60
  71 "bone_Intestine_14" 60
  72 "bone_Intestine_15" 60
  73 "bone_Intestine_16" 60
  74 "bone_Intestine_17" 60
  75 "bone_Intestine_18" 60
  76 "bone_Intestine_19" 60
  77 "bone_Intestine_20" 60
  78 "bone_Intestine_22" 60
  79 "bone_Intestine_lower01" 60
  80 "bone_Intestine_lower02" 60
  81 "bone_Intestine_lower03" 60
  82 "bone_Intestine_lower04" 60
  83 "bone_l_backplate_uppershoulder" 59
  84 "bone_l_clavicle" 59
  85 "bone_l_upperarm" 84
  86 "bone_l_forearm" 85
  87 "bone_l_forearm_twist" 86
  88 "bone_l_gauntlet_back_outer" 87
  89 "bone_l_gauntlet_inner" 87
  90 "bone_l_gauntlet_inner_back" 87
  91 "bone_l_shoulder" 85
  92 "bone_l_ribs_04" 59
  93 "bone_neck_01" 59
  94 "bone_neck_02" 93
  95 "bone_head_outer" 94
  96 "bone_foreheadplate" 95
  97 "bone_l_cheekplate" 95
  98 "bone_l_eyeplate" 95
  99 "bone_r_cheekplate" 95
  100 "bone_r_eyeplate" 95
  101 "bone_r_backplate_uppershoulder" 59
  102 "bone_r_clavicle" 59
  103 "bone_r_upperarm" 102
  104 "bone_r_forearm" 103
  105 "bone_r_forearm_twist" 104
  106 "bone_r_gauntlet_back_inner" 105
  107 "bone_r_gauntlet_back_outer" 105
  108 "bone_r_gauntlet_inner" 105
  109 "bone_r_shoulder" 103
  110 "bone_r_ribs_04" 59
  111 "bone_Intestine_21" 60
  112 "bone_l_armpitPlate" 85
  113 "bone_l_gauntlet_outer" 87
  114 "bone_l_hand" 86
  115 "bone_l_hand_extend" 114
  116 "bone_l_finger_back_01" 115
  117 "bone_l_finger_back_02" 116
  118 "bone_l_finger_back_03" 117
  119 "bone_l_finger_inner_01" 115
  120 "bone_l_finger_inner_02" 119
  121 "bone_l_finger_inner_03" 120
  122 "bone_l_finger_outer_01" 115
  123 "bone_l_finger_outer_02" 122
  124 "bone_l_finger_outer_03" 123
  125 "bone_l_shoulderPlate" 85
  126 "bone_l_shoulderPlate_Lower" 125
  127 "bone_head" 94
  128 "bone_jaw" 127
  129 "bone_tongue01" 128
  130 "bone_tongue02" 129
  131 "bone_tongue_tip_l" 130
  132 "bone_tongue_tip_r" 130
  133 "bone_jaw_outer" 95
  134 "bone_l_mouthplate" 133
  135 "bone_r_mouthplate" 133
  136 "bone_r_armpitPlate" 103
  137 "bone_r_gauntlet_outer" 105
  138 "bone_r_hand" 104
  139 "bone_r_hand_extend" 138
  140 "bone_r_finger_back_01" 139
  141 "bone_r_finger_back_02" 140
  142 "bone_r_finger_back_03" 141
  143 "bone_r_finger_inner_01" 139
  144 "bone_r_finger_inner_02" 143
  145 "bone_r_finger_inner_03" 144
  146 "bone_r_finger_outer_01" 139
  147 "bone_r_finger_outer_02" 146
  148 "bone_r_finger_outer_03" 147
  149 "bone_r_shoulderPlate" 103
  150 "bone_r_shoulderPlate_Lower" 149
end
skeleton
  time 0
    0 0.000000 0.000000 0.000000 0.000000 0.000000 -0.000001
    1 -0.000005 -54.955399 124.261299 0.000000 0.000000 0.000000
    2 0.000005 1.305401 -8.361290 -2.618373 -0.019758 -0.005290
    3 -22.417492 7.086331 0.875282 2.617178 -0.027548 -0.008160
    4 5.336807 -10.283119 14.308159 0.000000 -0.000007 -0.015624
    5 -17.644798 -3.949684 -3.625839 0.005207 0.000021 -0.020830
    6 -6.212353 14.499680 -39.089424 0.000000 0.000000 0.005435
    7 -1.587948 -24.117050 -43.487419 0.000000 0.000000 0.000000
    8 11.583443 -14.978287 -14.820558 0.000000 0.000000 0.000000
    9 0.252625 -7.097412 -2.786113 -0.002604 0.000000 0.000000
    10 25.724691 9.926296 -14.898008 0.000000 0.000000 0.000000
    11 5.018320 2.230278 -2.314063 -0.002604 0.000000 0.000000
    12 0.908741 26.506424 -14.126312 0.000000 0.000000 0.000000
    13 -1.102676 10.131779 -2.197846 -0.005435 0.000001 0.000000
    14 -15.804802 6.509109 -14.900664 0.000000 0.000000 0.000000
    15 -11.408108 7.621334 -2.449975 -0.002604 0.000000 0.000000
    16 -6.212303 14.499763 -39.089523 0.000000 0.000000 0.005435
    17 -6.212261 14.499840 -39.089508 0.000000 0.000000 0.005435
    18 22.289539 7.322813 1.758636 2.622354 -0.027436 -0.008127
    19 -5.652105 -10.038780 14.360420 0.000000 -0.000007 -0.015624
    20 17.513491 -4.513317 -3.603760 -0.005207 -0.000035 -0.020830
    21 6.055367 14.769753 -39.012909 0.000000 0.000000 0.005435
    22 6.055347 14.769718 -39.012878 0.000000 0.000000 0.005435
    23 6.055347 14.769707 -39.012894 0.000000 0.000000 0.005435
    24 1.583984 -23.889530 -43.612965 0.000000 0.000000 0.000000
    25 -11.564983 -14.920860 -14.896213 0.000000 0.000000 0.000000
    26 -0.254848 -7.083160 -2.821940 0.002604 0.000001 -0.000326
    27 -25.694456 9.990414 -14.853080 0.000000 0.000000 0.000000
    28 -5.016407 2.244362 -2.304655 0.002604 0.000000 0.000000
    29 -0.870975 26.554661 -13.987828 0.000000 0.000000 0.000000
    30 0.479530 10.191387 -2.146279 0.000000 0.000000 0.000000
    31 15.833561 6.553482 -14.856793 0.000000 0.000000 0.000000
    32 11.412674 7.628189 -2.407057 0.002604 0.000027 -0.010416
    33 0.285113 20.021809 -19.784416 2.611898 -0.019680 0.005424
    34 0.003495 -22.929634 -3.496994 0.005208 0.000000 0.000158
    35 -0.000078 -36.813431 -23.349686 0.000000 0.000000 -0.000003
    36 -0.000168 -26.590836 -16.748657 0.000000 0.000000 0.000000
    37 -0.000158 -23.745575 -11.211670 0.000000 0.000000 0.000000
    38 0.000005 -11.963745 20.017509 0.000000 0.000000 0.000000
    39 -55.198677 -3.034012 30.032135 0.000000 0.000000 0.000000
    40 -24.025600 -41.515915 10.937500 0.000000 0.000000 0.000000
    41 53.269512 -2.840569 27.808899 0.000000 0.000000 0.000000
    42 24.236689 -37.637169 12.043579 0.000000 0.000000 0.000000
    43 0.000170 18.763599 25.928375 0.000000 0.000000 0.000000
    44 -65.951797 -7.939133 33.228577 0.000000 0.000000 0.000000
    45 -47.697651 -9.923283 41.443069 0.000000 0.000000 0.000000
    46 -49.253273 -18.744198 26.421844 0.000000 0.000000 0.000000
    47 -61.478592 40.404198 -38.457245 0.000000 0.000000 0.000000
    48 59.188240 -9.746952 43.477066 0.000000 0.000000 0.000000
    49 45.368935 -15.819649 40.612808 0.000000 0.000000 0.000000
    50 53.316998 -15.618877 17.856232 0.000000 0.000000 0.000000
    51 62.162609 42.803387 -39.285950 0.000000 0.000000 0.000000
    52 -0.000014 24.565828 23.408905 0.000000 0.000000 0.000000
    53 -80.832352 -1.029358 28.050858 0.000000 0.000000 0.000000
    54 -58.130489 52.594139 -33.298325 0.000000 0.000000 0.000000
    55 -51.973057 57.040443 -21.948395 0.000000 0.000000 0.000000
    56 78.157898 -1.282898 32.542313 0.000000 0.000000 0.000000
    57 45.872967 67.106750 -21.454422 0.000000 0.000000 0.000000
    58 46.078281 59.058006 -25.250305 0.000000 0.000000 0.000000
    59 0.000003 32.947655 15.199142 0.000000 0.000000 0.000000
    60 3.416422 6.174805 -69.783279 0.000000 0.000000 0.000000
    61 -13.614395 61.326469 5.224091 0.000000 0.000000 0.000000
    62 2.783818 57.885620 5.612991 0.000000 0.000000 0.000000
    63 -9.512101 56.071198 -8.733154 0.000000 0.000000 0.000000
    64 4.555268 51.550003 -7.135513 0.000000 0.000000 0.000000
    65 -4.376451 43.015709 -25.768913 0.000000 0.000000 0.000000
    66 -32.091175 39.853783 -19.190506 0.000000 0.000000 0.000000
    67 22.658890 38.043045 -19.177139 0.000000 0.000000 0.000000
    68 41.909008 13.120363 21.108978 0.000000 0.000000 0.000000
    69 3.213239 16.033831 -55.008423 0.000000 0.000000 0.000000
    70 -24.332460 20.862238 -38.361237 0.000000 0.000000 0.000000
    71 27.767546 10.074574 -31.859192 0.000000 0.000000 0.000000
    72 -35.687698 -1.846172 -34.776657 0.000000 0.000000 0.000000
    73 -9.988565 -5.970928 -57.529526 0.000000 0.000000 0.000000
    74 28.353357 -5.196333 -42.805298 0.000000 0.000000 0.000000
    75 -25.592821 4.745945 -25.070847 0.000000 0.000000 0.000000
    76 5.288973 21.776598 -33.250999 0.000000 0.000000 0.000000
    77 -35.355385 -1.344037 19.870682 0.000000 0.000000 0.000000
    78 -0.000031 29.985819 0.000183 0.000000 0.000000 0.000000
    79 17.923756 -23.404711 -52.571678 0.000000 0.000000 0.000000
    80 0.153360 3.604639 -74.446724 0.000000 0.000000 0.000000
    81 -9.309981 29.339258 -51.634003 0.000000 0.000000 0.000000
    82 30.103003 -31.873638 7.083817 0.000000 0.000000 0.000000
    83 2.445795 19.604519 35.396164 0.000000 0.000000 0.000000
    84 -28.041161 56.297180 -11.657471 0.000000 0.000000 0.000000
    85 -44.042007 -23.077339 23.114716 0.000000 0.000000 0.000000
    86 -87.443512 6.308239 -34.189880 0.000000 0.000000 0.000000
    87 -0.000031 0.000099 -0.000168 0.000000 0.000000 0.000000
    88 -45.731476 -8.647884 -40.808624 0.000000 0.000000 0.000000
    89 -33.895203 13.129391 -67.606735 0.000000 0.000000 0.000000
    90 -26.472977 -4.121727 -35.252441 0.000000 0.000000 0.000000
    91 0.000038 0.000111 -0.000076 0.000000 0.000000 0.000000
    92 -51.077724 32.943314 -31.556778 0.000000 0.000000 0.000000
    93 0.000266 42.871071 5.982285 0.000000 0.000000 0.000000
    94 -0.000036 25.145088 1.355362 0.000000 0.000000 0.000000
    95 -0.000242 16.582710 1.810120 0.000000 0.000000 0.000000
    96 -0.000050 -0.000008 0.000046 0.000000 0.000000 0.000000
    97 -0.000014 0.000069 0.000168 0.000000 0.000000 0.000000
    98 0.000062 0.000122 0.000076 0.000000 0.000000 0.000000
    99 1.338698 -5.607086 -0.012756 0.000000 0.000000 0.000000
    100 0.000162 -0.000069 0.000076 0.000000 0.000000 0.000000
    101 -2.457717 19.604769 35.396378 0.000000 0.000000 0.000000
    102 28.041643 56.297226 -11.657318 0.000000 0.000000 0.000000
    103 44.041679 -23.077263 23.114838 0.000000 0.000000 0.000000
    104 87.443863 6.308456 -34.188736 0.000000 0.000000 0.000000
    105 0.000031 0.000046 -0.000137 0.000000 0.000000 0.000000
    106 26.472366 -4.122948 -35.253738 0.000000 0.000000 0.000000
    107 45.730469 -8.650036 -40.810104 0.000000 0.000000 0.000000
    108 33.895599 13.130466 -67.606010 0.000000 0.000000 0.000000
    109 -0.000038 0.000027 -0.000122 0.000000 0.000000 0.000000
    110 46.389435 31.033236 -27.853409 0.000000 0.000000 0.000000
    111 -36.571682 33.290504 9.087341 0.000000 0.000000 0.000000
    112 21.847137 39.403435 -35.871353 0.000000 0.000000 0.000000
    113 -31.437225 11.732376 -26.830353 0.000000 0.000000 0.000000
    114 -47.747925 0.983219 -66.200813 0.000000 0.000000 0.000000
    115 -5.533646 1.227524 -8.741005 0.000000 0.000000 0.000000
    116 -2.804047 -24.291662 -1.104233 0.000000 0.000000 0.000000
    117 -7.769104 -13.453123 -5.388222 0.000000 0.000000 0.000000
    118 -9.550522 -14.594097 -5.229446 0.000000 0.000000 0.000000
    119 11.005142 5.178665 -10.694290 0.000000 0.000000 0.000000
    120 -0.908615 3.257835 -21.061340 0.000000 0.000000 0.000000
    121 -0.998489 3.872185 -24.751144 0.000000 0.000000 0.000000
    122 -11.487823 5.774082 10.764313 0.000000 0.000000 0.000000
    123 -17.820496 6.849758 -16.834839 0.000000 0.000000 0.000000
    124 -15.548904 6.535088 -14.123756 0.000000 0.000000 0.000000
    125 -19.204964 5.467148 24.130005 0.000000 0.000000 0.000000
    126 0.000130 0.000069 -0.000336 0.000000 0.000000 0.000000
    127 -0.000056 16.582848 1.810120 0.000000 0.000000 0.000000
    128 0.000067 -3.418060 -13.147049 0.000000 0.000000 0.000000
    129 0.000024 -0.550896 -12.511124 0.000000 0.000000 0.000000
    130 0.001304 20.253098 8.761307 0.000000 0.000000 0.000000
    131 -6.999675 19.351700 -4.719879 0.000000 0.000000 0.000000
    132 7.000314 19.350250 -4.722076 0.000000 0.000000 0.000000
    133 0.000366 -7.416771 -14.844101 0.000000 0.000000 0.000000
    134 -26.982510 19.473701 -10.485596 0.000000 0.000000 0.000000
    135 26.982843 19.474396 -10.486130 0.000000 0.000000 0.000000
    136 -9.158451 39.503090 -36.119263 0.000000 0.000000 0.000000
    137 31.438019 11.730034 -26.829758 0.000000 0.000000 0.000000
    138 47.747284 0.983120 -66.201126 0.000000 0.000000 0.000000
    139 5.534241 1.227821 -8.740929 0.000000 0.000000 0.000000
    140 2.803925 -24.291870 -1.104340 0.000000 0.000000 0.000000
    141 7.769043 -13.452843 -5.388191 0.000000 0.000000 0.000000
    142 9.550598 -14.594069 -5.229462 0.000000 0.000000 0.000000
    143 -11.005539 5.178696 -10.694267 0.000000 0.000000 0.000000
    144 0.908447 3.258045 -21.061356 0.000000 0.000000 0.000000
    145 0.998474 3.872311 -24.751335 0.000000 0.000000 0.000000
    146 11.487411 5.773987 10.764214 0.000000 0.000000 0.000000
    147 17.820816 6.849808 -16.834747 0.000000 0.000000 0.000000
    148 15.548584 6.535206 -14.123764 0.000000 0.000000 0.000000
    149 19.204796 5.467312 24.130127 0.000000 0.000000 0.000000
    150 -0.000221 -0.000137 -0.000092 0.000000 0.000000 0.000000
end
