// Created by Crowbar 0.67
version 1
nodes
  0 "Bip_01" -1
  1 "bone_root" 0
  2 "bone_pelvis" 1
  3 "bone_L_hip" 2
  4 "bone_L_thigh" 3
  5 "bone_L_leg" 4
  6 "bone_L_loleg" 5
  7 "bone_L_foot" 6
  8 "bone_L_foot_palm" 7
  9 "bone_L_toe_indexA" 8
  10 "bone_L_toe_indexB" 9
  11 "bone_L_toe_middleA" 8
  12 "bone_L_toe_middleB" 11
  13 "bone_L_toe_pinkyA" 8
  14 "bone_L_toe_pinkyB" 13
  15 "bone_L_toe_pinkyC" 14
  16 "bone_L_toe_thumbA" 7
  17 "bone_L_toe_thumbB" 16
  18 "bone_R_hip" 2
  19 "bone_R_thigh" 18
  20 "bone_R_leg" 19
  21 "bone_R_loleg" 20
  22 "bone_R_foot" 21
  23 "bone_R_foot_palm" 22
  24 "bone_R_toe_indexA" 23
  25 "bone_R_toe_indexB" 24
  26 "bone_R_toe_middleA" 23
  27 "bone_R_toe_middleB" 26
  28 "bone_R_toe_pinkyA" 23
  29 "bone_R_toe_pinkyB" 28
  30 "bone_R_toe_pinkyC" 29
  31 "bone_R_toe_thumbA" 22
  32 "bone_R_toe_thumbB" 31
  33 "bone_spine01" 1
  34 "bone_spine02" 33
  35 "bone_chest" 34
  36 "Bip01_Head" 35
  37 "bone_skull" 36
  38 "bone_jawA" 37
  39 "bone_jawB" 38
  40 "bone_jawC" 39
  41 "bone_L_mouthA" 40
  42 "bone_L_mouthB" 41
  43 "bone_L_mouthC" 42
  44 "bone_R_mouthA" 40
  45 "bone_R_mouthB" 44
  46 "bone_R_mouthC" 45
  47 "bone_L_cheek" 37
  48 "bone_L_head_tentacleA" 37
  49 "bone_L_head_tentacleB" 48
  50 "bone_L_head_tentacleC" 49
  51 "bone_L_temple_tentacleA" 37
  52 "bone_L_temple_tentacleB" 51
  53 "bone_L_temple_tentacleC" 52
  54 "bone_L_temple_tentacleD" 53
  55 "bone_L_throat_tentacleA" 37
  56 "bone_L_throat_tentacleB" 55
  57 "bone_L_throat_tentacleC" 56
  58 "bone_L_throat_tentacleD" 57
  59 "bone_L_throat_tentacleTIP" 58
  60 "bone_nose" 37
  61 "bone_L_front_tentacleA" 60
  62 "bone_L_front_tentacleB" 61
  63 "bone_L_front_tentacleC" 62
  64 "bone_L_front_tentacleD" 63
  65 "bone_L_front_tentacleE" 64
  66 "bone_R_front_tentacleA" 60
  67 "bone_R_front_tentacleB" 66
  68 "bone_R_front_tentacleC" 67
  69 "bone_R_front_tentacleD" 68
  70 "bone_R_front_tentacleE" 69
  71 "bone_R_cheek" 37
  72 "bone_R_head_tentacleA" 37
  73 "bone_R_head_tentacleB" 72
  74 "bone_R_head_tentacleC" 73
  75 "bone_R_temple_tentacleA" 37
  76 "bone_R_temple_tentacleB" 75
  77 "bone_R_temple_tentacleC" 76
  78 "bone_R_temple_tentacleD" 77
  79 "bone_R_throat_tentacleA" 37
  80 "bone_R_throat_tentacleB" 79
  81 "bone_R_throat_tentacleC" 80
  82 "bone_R_throat_tentacleD" 81
  83 "bone_R_throat_tentacleTIP" 82
  84 "bone_L_back_start" 35
  85 "bone_L_backA" 84
  86 "bone_L_backB" 85
  87 "bone_L_backC" 86
  88 "bone_L_backD" 87
  89 "bone_L_backE" 88
  90 "bone_L_clav" 35
  91 "bone_L_uparm" 90
  92 "bone_L_forearm" 91
  93 "bone_L_hand" 92
  94 "bone_L_indexA" 93
  95 "bone_L_indexB" 94
  96 "bone_L_indexC" 95
  97 "bone_L_indexD" 96
  98 "bone_L_indexE" 97
  99 "bone_L_indexTIP" 98
  100 "bone_L_middleA" 93
  101 "bone_L_middleB" 100
  102 "bone_L_middleC" 101
  103 "bone_L_middleD" 102
  104 "bone_L_middleTIP" 103
  105 "bone_L_pinkyCUP" 93
  106 "bone_L_pinkyA" 105
  107 "bone_L_pinkyB" 106
  108 "bone_L_pinkyC" 107
  109 "bone_L_pinkyTIP" 108
  110 "bone_L_thumbCUP" 93
  111 "bone_L_thumbA" 110
  112 "bone_L_thumbTIP" 111
  113 "bone_L_thumbB" 112
  114 "bone_pec_center" 35
  115 "bone_L_pectoral" 114
  116 "bone_R_pectoral" 114
  117 "bone_R_back_start" 35
  118 "bone_R_backA" 117
  119 "bone_R_backB" 118
  120 "bone_R_backC" 119
  121 "bone_R_backD" 120
  122 "bone_R_backE" 121
  123 "bone_R_clav" 35
  124 "bone_R_uparm" 123
  125 "bone_R_forearm" 124
  126 "bone_R_hand" 125
  127 "bone_R_indexA" 126
  128 "bone_R_indexB" 127
  129 "bone_R_indexC" 128
  130 "bone_R_indexD" 129
  131 "bone_R_indexE" 130
  132 "bone_R_indexTIP" 131
  133 "bone_R_middleA" 126
  134 "bone_R_middleB" 133
  135 "bone_R_middleC" 134
  136 "bone_R_middleD" 135
  137 "bone_R_middleTIP" 136
  138 "bone_R_pinkyCUP" 126
  139 "bone_R_pinkyA" 138
  140 "bone_R_pinkyB" 139
  141 "bone_R_pinkyC" 140
  142 "bone_R_pinkyTIP" 141
  143 "bone_R_thumbCUP" 126
  144 "bone_R_thumbA" 143
  145 "bone_R_thumbTIP" 144
  146 "bone_R_thumbB" 145
  147 "bone_R_wing_base" 35
  148 "bone_R_wingA" 147
  149 "bone_R_wingA2" 148
  150 "bone_R_wingB" 149
  151 "bone_R_wingB2" 150
  152 "bone_R_wingC" 151
  153 "bone_R_wingD" 152
  154 "bone_R_wingE" 153
  155 "bone_sternum" 35
  156 "bone_L_toe_indexC" 10
  157 "bone_L_toe_middleC" 12
  158 "bone_L_toe_thumbC" 17
  159 "bone_R_toe_indexC" 25
  160 "bone_R_toe_middleC" 27
  161 "bone_R_toe_thumbC" 32
  162 "bone_tail01" 2
  163 "bone_tail02" 162
  164 "bone_tail03" 163
  165 "bone_tail04" 164
  166 "bone_L_forkA" 165
  167 "bone_L_forkB" 166
  168 "bone_R_forkB" 166
  169 "bone_R_forkA" 165
  170 "bone_L_wing_base" 35
  171 "bone_L_wingA" 170
  172 "bone_L_wingA2" 171
  173 "bone_L_wingB" 172
  174 "bone_L_wingB2" 173
  175 "bone_L_wingC" 174
  176 "bone_L_wingC_claw" 175
  177 "bone_L_wingD" 175
  178 "bone_L_wingE" 177
  179 "bone_L_wingTIP" 178
  180 "bone_R_wingC_claw" 152
  181 "bone_R_wingTIP" 154
end
skeleton
  time 0
    0 0.000000 0.000000 0.000000 0.000000 0.000000 -0.000001
    1 0.000000 -48.962463 185.968018 0.000000 0.000000 0.000000
    2 0.000000 -13.976467 -13.092941 0.000000 0.000000 0.000000
    3 -9.769400 15.173977 -5.500977 0.000000 0.000000 0.000000
    4 -11.623693 -0.357269 0.090698 0.000000 0.000000 0.000000
    5 -41.538017 38.301762 -68.707596 0.000000 0.000000 0.000000
    6 6.438065 -58.801487 -43.429928 0.000000 0.000000 0.000000
    7 -4.383205 21.885719 -39.810772 0.000000 0.000000 0.000000
    8 -0.276691 2.455330 -9.955803 0.000000 0.000000 0.000000
    9 7.189240 14.568203 0.411935 0.000000 0.000000 0.000000
    10 5.033676 11.830467 -0.632740 0.000000 0.000000 0.000000
    11 -2.219975 15.900770 0.793040 0.000000 0.000000 0.000000
    12 -0.198841 12.154169 2.252820 0.000000 0.000000 0.000000
    13 -8.373898 2.544247 -0.935994 0.000000 0.000000 0.000000
    14 -6.617722 12.801151 0.000212 0.000000 0.000000 0.000000
    15 -6.589417 12.746639 2.577246 0.000000 0.000000 0.000000
    16 1.062572 -1.261044 -11.257005 0.000000 0.000000 0.000000
    17 3.007748 -10.532955 2.119264 0.000000 0.000000 0.000000
    18 9.769400 15.173977 -5.500977 0.000000 0.000000 0.000000
    19 11.623693 -0.357197 0.090775 0.000000 0.000000 0.000000
    20 41.548775 38.294785 -68.699532 0.000000 0.000000 0.000000
    21 -6.319969 -58.805996 -43.432819 0.000000 0.000000 0.000000
    22 4.246204 21.903931 -39.808620 0.000000 0.000000 0.000000
    23 0.276546 2.485237 -9.950051 0.000000 0.000000 0.000000
    24 -7.190620 14.563400 0.453525 0.000000 0.000000 0.000000
    25 -5.034431 11.829418 -0.599140 0.000000 0.000000 0.000000
    26 2.219997 15.894341 0.838677 0.000000 0.000000 0.000000
    27 0.198383 12.144886 2.286951 0.000000 0.000000 0.000000
    28 8.373966 2.546650 -0.928591 0.000000 0.000000 0.000000
    29 6.618408 12.797817 0.036770 0.000000 0.000000 0.000000
    30 6.590363 12.736097 2.612997 0.000000 0.000000 0.000000
    31 -1.062576 -1.225773 -11.262060 0.000000 0.000000 0.000000
    32 -2.945507 -10.553677 2.087147 0.000000 0.000000 0.000000
    33 0.000000 4.638359 8.663757 0.000000 0.000000 0.000000
    34 0.000000 9.970173 15.610886 0.000000 0.000000 0.000000
    35 0.000000 29.374832 25.634933 0.000000 0.000000 0.000000
    36 0.000000 50.860153 20.797455 0.000000 0.000000 0.000000
    37 0.000000 22.461033 11.863922 0.000000 0.000000 0.000000
    38 0.000000 -14.442760 -45.476822 0.000000 0.000000 0.000000
    39 0.000000 19.506069 -2.225632 0.000000 0.000000 0.000000
    40 0.000000 19.385956 -2.380234 0.000000 0.000000 0.000000
    41 -3.139192 16.756729 -2.419525 0.000000 0.000000 0.000000
    42 -1.048116 10.396683 5.379074 0.000000 0.000000 0.000000
    43 1.245389 0.314888 5.125565 0.000000 0.000000 0.000000
    44 3.139240 16.756668 -2.419540 0.000000 0.000000 0.000000
    45 1.048141 10.396614 5.378922 0.000000 0.000000 0.000000
    46 -1.245344 0.315247 5.125732 0.000000 0.000000 0.000000
    47 -11.481222 30.756050 -31.164169 0.000000 0.000000 0.000000
    48 -9.349257 9.566124 21.932892 0.000000 0.000000 0.000000
    49 -6.159887 -18.212257 12.345245 0.000000 0.000000 0.000000
    50 -4.231217 -14.974880 11.593140 0.000000 0.000000 0.000000
    51 -15.638609 -3.513657 13.517151 0.000000 0.000000 0.000000
    52 -14.526072 -11.624916 4.912872 0.000000 0.000000 0.000000
    53 -13.126614 -10.042023 4.338898 0.000000 0.000000 0.000000
    54 -9.546024 -6.900520 2.049194 0.000000 0.000000 0.000000
    55 -9.725936 7.400421 -30.308990 0.000000 0.000000 0.000000
    56 -10.037499 -2.110161 -20.771286 0.000000 0.000000 0.000000
    57 -12.025448 -2.143707 -18.673950 0.000000 0.000000 0.000000
    58 -10.545700 -2.436768 -17.761200 0.000000 0.000000 0.000000
    59 -10.155003 -2.346214 -17.103058 0.000000 0.000000 0.000000
    60 0.000000 39.772179 -21.924332 0.000000 0.000000 0.000000
    61 -5.369464 3.471970 -7.310059 0.000000 0.000000 0.000000
    62 -6.739871 0.892204 -20.665375 0.000000 0.000000 0.000000
    63 -4.061596 1.137978 -16.112625 0.000000 0.000000 0.000000
    64 -2.410244 0.663315 -15.027527 0.000000 0.000000 0.000000
    65 -0.202805 0.446770 -16.445648 0.000000 0.000000 0.000000
    66 5.369557 3.471519 -7.310349 0.000000 0.000000 0.000000
    67 6.739921 0.892456 -20.665558 0.000000 0.000000 0.000000
    68 4.061829 1.138092 -16.112625 0.000000 0.000000 0.000000
    69 2.410179 0.662834 -15.027573 0.000000 0.000000 0.000000
    70 0.203074 0.446877 -16.445908 0.000000 0.000000 0.000000
    71 11.481319 30.756088 -31.164246 0.000000 0.000000 0.000000
    72 9.349292 9.566185 21.932922 0.000000 0.000000 0.000000
    73 6.160996 -18.211800 12.344116 0.000000 0.000000 0.000000
    74 4.232307 -14.975121 11.592590 0.000000 0.000000 0.000000
    75 15.638667 -3.513680 13.517120 0.000000 0.000000 0.000000
    76 14.526242 -11.624748 4.913422 0.000000 0.000000 0.000000
    77 13.139225 -10.051754 4.278259 0.000000 0.000000 0.000000
    78 9.302692 -7.249584 1.962891 0.000000 0.000000 0.000000
    79 9.726236 7.400551 -30.309204 0.000000 0.000000 0.000000
    80 10.036985 -2.109406 -20.770813 0.000000 0.000000 0.000000
    81 12.025017 -2.143562 -18.672699 0.000000 0.000000 0.000000
    82 10.545303 -2.436806 -17.760727 -0.000001 0.000000 0.000000
    83 10.154556 -2.346397 -17.102814 0.000001 0.000000 0.000000
    84 -11.682130 53.943432 45.022858 0.000000 0.000000 0.000000
    85 -2.011556 -12.011200 3.583374 0.000000 0.000000 0.000000
    86 -5.383539 -22.783180 18.909851 0.000000 0.000000 0.000000
    87 -0.506109 -19.669624 19.047180 0.000000 0.000000 0.000000
    88 -0.503908 -17.588987 16.140930 0.000000 0.000000 0.000000
    89 -0.217958 -15.455317 14.513397 0.000000 0.000000 0.000000
    90 -9.557400 42.187771 -15.644043 0.000000 0.000000 0.000000
    91 -16.422812 -2.876804 8.403778 0.000000 0.000000 0.000000
    92 -47.044006 -12.129276 -74.970886 0.000000 0.000000 0.000000
    93 -37.005814 78.766029 -84.459488 0.000000 0.000000 0.000000
    94 -5.291008 24.994377 -25.714287 0.000000 0.000000 0.000000
    95 -0.522827 12.188873 -7.640739 0.000000 0.000000 0.000000
    96 -1.219902 22.681778 -12.712299 0.000000 0.000000 0.000000
    97 -2.166412 16.824768 1.760832 0.000000 0.000000 0.000000
    98 0.180115 14.588043 4.076229 0.000000 0.000000 0.000000
    99 0.624016 9.117752 0.222578 0.000000 0.000000 0.000000
    100 -10.769974 27.739662 -32.675915 0.000000 0.000000 0.000000
    101 -7.145813 8.433197 -9.213686 0.000000 0.000000 0.000000
    102 -7.463730 7.552368 -7.008379 0.000000 0.000000 0.000000
    103 -9.527130 8.091263 -3.764528 0.000000 0.000000 0.000000
    104 -8.534958 9.999573 0.325573 0.000000 0.000000 0.000000
    105 -11.931572 6.890419 -20.583939 0.000000 0.000000 0.000000
    106 -5.236992 14.752556 -15.189548 0.000000 0.000000 0.000000
    107 -7.602615 3.683731 -7.970024 0.000000 0.000000 0.000000
    108 -10.301086 4.604134 -7.215252 0.000000 0.000000 0.000000
    109 -7.138245 3.085114 -2.625508 0.000000 0.000000 0.000000
    110 3.203377 11.128365 -22.264042 0.000000 0.000000 0.000000
    111 10.515770 0.318825 -12.716217 0.000000 0.000000 0.000000
    112 13.843155 0.284111 -8.488792 0.000000 0.000000 0.000000
    113 9.469231 0.851082 -4.685125 0.000000 0.000000 0.000000
    114 0.000000 50.218182 -37.273727 0.000000 0.000000 0.000000
    115 0.000045 1.855228 -1.111084 0.000000 0.000000 0.000000
    116 0.000028 1.855324 -1.111115 0.000000 0.000000 0.000000
    117 11.681912 53.943287 45.022675 0.000000 0.000000 0.000000
    118 2.012219 -12.010998 3.582611 0.000000 0.000000 0.000000
    119 5.384916 -22.783127 18.910278 0.000000 0.000000 0.000000
    120 0.506763 -19.670237 19.047546 0.000000 0.000000 0.000000
    121 0.504732 -17.589338 16.141693 0.000000 0.000000 0.000000
    122 0.218430 -15.456337 14.514435 0.000000 0.000000 0.000000
    123 9.557401 42.187874 -15.644196 0.000000 0.000000 0.000000
    124 16.422821 -2.876694 8.403748 0.000000 0.000000 0.000000
    125 47.041721 -12.126713 -74.968231 0.000000 0.000000 0.000000
    126 37.012573 78.763847 -84.451851 0.000000 0.000000 0.000000
    127 5.290184 24.995979 -25.711437 0.000000 0.000000 0.000000
    128 0.522636 12.189957 -7.640209 0.000000 0.000000 0.000000
    129 1.219635 22.683014 -12.710140 0.000000 0.000000 0.000000
    130 2.166138 16.825302 1.762585 0.000000 0.000000 0.000000
    131 -0.210701 14.586853 4.081749 0.000000 0.000000 0.000000
    132 -0.642189 9.116821 0.225702 0.000000 0.000000 0.000000
    133 10.769402 27.741356 -32.672291 0.000000 0.000000 0.000000
    134 7.145760 8.433487 -9.213058 0.000000 0.000000 0.000000
    135 7.463654 7.552444 -7.007210 0.000000 0.000000 0.000000
    136 9.526886 8.091293 -3.763586 0.000000 0.000000 0.000000
    137 8.534698 9.999771 0.326405 0.000000 0.000000 0.000000
    138 11.931808 6.890587 -20.581806 0.000000 0.000000 0.000000
    139 5.236923 14.753830 -15.187710 0.000000 0.000000 0.000000
    140 7.602615 3.683723 -7.969278 0.000000 0.000000 0.000000
    141 10.301392 4.604424 -7.214659 0.000000 0.000000 0.000000
    142 7.138824 3.085403 -2.625059 0.000000 0.000000 0.000000
    143 -3.204094 11.128899 -22.262138 0.000000 0.000000 0.000000
    144 -10.543640 0.330261 -12.692688 0.000000 0.000000 0.000000
    145 -13.861931 0.294922 -8.457941 0.000000 0.000000 0.000000
    146 -9.479340 0.857887 -4.663832 0.000000 0.000000 0.000000
    147 26.887053 30.789274 30.969299 0.000000 0.000000 0.000000
    148 8.114824 -0.762516 6.662415 0.000000 0.000000 0.000000
    149 29.016693 -9.952842 -0.006653 0.000000 0.000000 0.000000
    150 23.434952 -14.632246 0.395264 0.000000 0.000000 0.000000
    151 15.132034 -10.752118 13.823151 0.000000 0.000000 0.000000
    152 54.827698 -48.550499 54.981812 0.000000 0.000000 0.000000
    153 60.447006 -58.455517 -37.115845 0.000000 0.000000 0.000000
    154 48.833344 -47.305939 -31.920410 0.000000 0.000000 0.000000
    155 0.000000 27.899117 -48.412567 0.000000 0.000000 0.000000
    156 1.837936 10.409658 4.403242 0.000000 0.000000 0.000000
    157 -1.876179 12.466313 2.315666 0.000000 0.000000 0.000000
    158 2.805603 -12.994957 1.767395 0.000000 0.000000 0.000000
    159 -1.838551 10.393989 4.431933 0.000000 0.000000 0.000000
    160 1.840389 12.461725 2.351520 0.000000 0.000000 0.000000
    161 -2.728939 -13.012192 1.728062 0.000000 0.000000 0.000000
    162 0.000000 -20.186390 -7.370453 0.000000 0.000000 0.000000
    163 0.000000 -70.969650 -29.086288 0.000000 0.000000 0.000000
    164 0.000000 -49.099854 -16.109863 0.000000 0.000000 0.000000
    165 0.000000 -53.878052 -19.223618 0.000000 0.000000 0.000000
    166 -5.878856 -31.083405 -11.090599 0.000000 0.000000 0.000000
    167 -6.238051 -44.197052 -15.769890 0.000000 0.000000 0.000000
    168 17.995516 -44.195679 -15.769257 0.000000 0.000000 0.000000
    169 5.878855 -31.083405 -11.090614 0.000000 0.000000 0.000000
    170 -26.887115 30.789379 30.969299 0.000000 0.000000 0.000000
    171 -8.114433 -0.762760 6.662689 0.000000 0.000000 0.000000
    172 -29.016991 -9.952725 -0.088409 0.000000 0.000000 0.000000
    173 -23.436073 -14.632466 0.326599 0.000000 0.000000 0.000000
    174 -15.166512 -10.764298 13.776703 0.000000 0.000000 0.000000
    175 -54.964722 -48.596985 54.806671 0.000000 0.000000 0.000000
    176 -0.220245 1.825119 3.416382 0.000000 0.000000 0.000000
    177 -60.354630 -58.423050 -37.313171 0.000000 0.000000 0.000000
    178 -48.753769 -47.278885 -32.079193 0.000000 0.000000 0.000000
    179 -37.256805 -41.223480 -29.448456 0.000000 0.000000 0.000000
    180 0.211578 1.827824 3.415466 0.000000 0.000000 0.000000
    181 37.330841 -41.249237 -29.322235 0.000000 0.000000 0.000000
end
